<svg width="20" height="18" viewBox="0 0 20 18" fill="none" xmlns="http://www.w3.org/2000/svg">
<path d="M1.81666 10.1634H15.6138L11.3909 15.2355C11.2931 15.3531 11.2195 15.4889 11.1742 15.635C11.1288 15.7811 11.1128 15.9346 11.1268 16.087C11.1552 16.3946 11.3046 16.6783 11.5421 16.8758C11.7797 17.0733 12.086 17.1683 12.3936 17.1399C12.7012 17.1115 12.985 16.9621 13.1824 16.7246L18.9991 9.74456C19.0382 9.68904 19.0732 9.63072 19.1038 9.57006C19.1038 9.51189 19.162 9.47699 19.1852 9.41883C19.238 9.28544 19.2656 9.14345 19.2667 9.00003C19.2656 8.8566 19.238 8.71461 19.1852 8.58123C19.1852 8.52306 19.1271 8.48816 19.1038 8.42999C19.0732 8.36934 19.0382 8.31101 18.9991 8.25549L13.1824 1.27549C13.073 1.14417 12.9361 1.03856 12.7813 0.96618C12.6264 0.893796 12.4576 0.856414 12.2867 0.856692C12.0148 0.856161 11.7514 0.950827 11.5421 1.12426C11.4243 1.22192 11.327 1.34186 11.2556 1.47721C11.1842 1.61256 11.1402 1.76066 11.1262 1.91303C11.1121 2.0654 11.1283 2.21905 11.1737 2.36516C11.2191 2.51128 11.2929 2.64701 11.3909 2.76456L15.6138 7.83669H1.81666C1.50813 7.83669 1.21223 7.95926 0.994061 8.17742C0.775893 8.39559 0.653328 8.69149 0.653328 9.00003C0.653328 9.30856 0.775893 9.60446 0.994061 9.82263C1.21223 10.0408 1.50813 10.1634 1.81666 10.1634Z" fill="white"/>
</svg>
