<svg width="19" height="17" viewBox="0 0 19 17" fill="none" xmlns="http://www.w3.org/2000/svg">
<path d="M1.52161 9.89163H15.3187L11.0958 14.9638C10.9981 15.0814 10.9244 15.2171 10.8791 15.3632C10.8338 15.5093 10.8177 15.6629 10.8317 15.8152C10.8601 16.1229 11.0095 16.4066 11.2471 16.6041C11.4846 16.8015 11.7909 16.8965 12.0985 16.8682C12.4062 16.8398 12.6899 16.6904 12.8874 16.4528L18.704 9.47283C18.7432 9.41731 18.7782 9.35899 18.8087 9.29833C18.8087 9.24016 18.8669 9.20526 18.8902 9.1471C18.9429 9.01371 18.9705 8.87172 18.9716 8.7283C18.9705 8.58487 18.9429 8.44288 18.8902 8.3095C18.8902 8.25133 18.832 8.21643 18.8087 8.15826C18.7782 8.09761 18.7432 8.03928 18.704 7.98376L12.8874 1.00376C12.778 0.872443 12.641 0.766836 12.4862 0.694452C12.3314 0.622068 12.1625 0.584686 11.9916 0.584963C11.7198 0.584432 11.4564 0.679099 11.2471 0.85253C11.1293 0.950191 11.0319 1.07013 10.9605 1.20548C10.8892 1.34083 10.8452 1.48893 10.8311 1.6413C10.8171 1.79367 10.8332 1.94732 10.8787 2.09344C10.9241 2.23955 10.9979 2.37528 11.0958 2.49283L15.3187 7.56496H1.52161C1.21307 7.56496 0.917176 7.68753 0.699009 7.9057C0.480842 8.12386 0.358276 8.41976 0.358276 8.7283C0.358276 9.03683 0.480842 9.33273 0.699009 9.5509C0.917176 9.76906 1.21307 9.89163 1.52161 9.89163Z" fill="#252160"/>
</svg>
